Coordinates
version=1
nRows=29
nColumns=24
inDegrees=yes

Units are S.I. units (second, meters, Newtons, ...)
Angles are in degrees.

endheader
time	pelvis_tilt	pelvis_list	pelvis_rotation	pelvis_tx	pelvis_ty	pelvis_tz	hip_flexion_r	hip_adduction_r	hip_rotation_r	knee_angle_r	ankle_angle_r	subtalar_angle_r	mtp_angle_r	hip_flexion_l	hip_adduction_l	hip_rotation_l	knee_angle_l	ankle_angle_l	subtalar_angle_l	mtp_angle_l	lumbar_extension	lumbar_bending	lumbar_rotation
      1.74166667	      0.44834361	      7.52724920	     -3.11263047	      1.46402732	      1.02089739	      0.22237984	     13.97499082	     -7.22358606	      1.93847985	    -64.92527578	      6.04439736	    -14.76127828	      2.95891473	      4.72309447	     12.19960161	      2.19538474	     -8.18234188	     -0.52299536	    -19.20805904	      8.28517848	     -1.10047002	     -9.32471048	      4.99089653
      1.74583333	      0.44472591	      7.45160869	     -2.87131643	      1.46884554	      1.02141120	      0.22195559	     14.47830584	     -7.12146676	      1.76924758	    -64.57065285	      6.22037087	    -14.88453434	      2.79324835	      4.19547331	     12.16048614	      2.54760305	     -7.79169527	     -0.55874712	    -19.27593255	      8.16745024	     -1.13894200	     -9.22742671	      4.72421755
      1.75000000	      0.42521039	      7.35804513	     -2.63119973	      1.47359830	      1.02187142	      0.22154264	     14.99419392	     -7.00095023	      1.60139467	    -64.18637061	      6.38688985	    -14.96611887	      2.73663354	      3.71892218	     12.09087701	      2.84092123	     -7.47340583	     -0.48043582	    -19.19036649	      8.12940854	     -1.17133198	     -9.10240716	      4.61373574
      1.75416667	      0.42730252	      7.26673619	     -2.38459163	      1.47840651	      1.02234300	      0.22114029	     15.46831501	     -6.88336970	      1.43640203	    -63.76130639	      6.49798760	    -15.08662393	      2.62637274	      3.19764743	     12.02457955	      3.19601965	     -7.11163012	     -0.44459078	    -19.26794948	      8.05586230	     -1.21737968	     -9.00855986	      4.28825208
      1.75833333	      0.42354137	      7.18686753	     -2.14884794	      1.48315501	      1.02275292	      0.22074392	     15.95610244	     -6.78617714	      1.27488835	    -63.32969915	      6.63874696	    -15.16933375	      2.51143231	      2.69510235	     11.96465914	      3.52627889	     -6.76686601	     -0.41259816	    -19.29598630	      7.97558099	     -1.26208866	     -8.90857632	      4.06349053
      1.76250000	      0.39723920	      7.10762478	     -1.90996154	      1.48792363	      1.02310536	      0.22036173	     16.45954781	     -6.69415774	      1.10771038	    -62.87133429	      6.79441007	    -15.24709028	      2.46278716	      2.23144930	     11.89372154	      3.79271029	     -6.44461514	     -0.38599120	    -19.20393507	      7.94404504	     -1.27270107	     -8.81139721	      3.96000904
      1.76666667	      0.38001196	      7.02221082	     -1.66915868	      1.49267280	      1.02344038	      0.21998463	     16.93786161	     -6.59868784	      0.94176178	    -62.37617903	      6.93358764	    -15.31869935	      2.40923733	      1.75440027	     11.81411012	      4.08809989	     -6.11849076	     -0.33907748	    -19.17245188	      7.90952347	     -1.30094489	     -8.70444338	      3.77266702
      1.77083333	      0.39291236	      6.96613174	     -1.45939206	      1.49743334	      1.02376648	      0.21963202	     17.39209669	     -6.53425433	      0.81212555	    -61.87589581	      7.02217370	    -15.40242162	      2.24171427	      1.20955586	     11.77026185	      4.45667301	     -5.70472183	     -0.38142548	    -19.36027539	      7.79621768	     -1.36251513	     -8.63553804	      3.38224998
      1.77500000	      0.38536736	      6.89213817	     -1.23487612	      1.50220061	      1.02404674	      0.21929227	     17.84851878	     -6.45377504	      0.66714702	    -61.33667080	      7.13832721	    -15.45391114	      2.07017296	      0.71868470	     11.69562554	      4.77271810	     -5.36038752	     -0.35857236	    -19.39340937	      7.67676423	     -1.39852735	     -8.54981832	      3.16869223
      1.77916667	      0.34120985	      6.81399370	     -1.00849360	      1.50692018	      1.02423625	      0.21895054	     18.34259360	     -6.37169482	      0.52431013	    -60.78002788	      7.24729131	    -15.47506827	      2.03383243	      0.29229312	     11.60782254	      4.99840217	     -5.06276360	     -0.28325152	    -19.27987889	      7.65468201	     -1.38924027	     -8.44220435	      3.10760057
      1.78333333	      0.35623756	      6.74692400	     -0.78816888	      1.51167672	      1.02447906	      0.21861831	     18.75867546	     -6.30729622	      0.38483860	    -60.19264865	      7.31152608	    -15.52781897	      1.92454535	     -0.22489989	     11.53483010	      5.32673649	     -4.71432327	     -0.23762870	    -19.35653447	      7.58035285	     -1.44975693	     -8.36058293	      2.79300892
      1.78750000	      0.34249392	      6.66936322	     -0.57549483	      1.51638875	      1.02466558	      0.21832635	     19.19568722	     -6.22848956	      0.25257370	    -59.57286837	      7.42468479	    -15.53761871	      1.87148383	     -0.68807350	     11.43921611	      5.55348534	     -4.39806602	     -0.21603519	    -19.28853313	      7.54527527	     -1.47936345	     -8.27259584	      2.69325848
      1.79166667	      0.32482808	      6.61499531	     -0.37893381	      1.52117336	      1.02476883	      0.21803760	     19.63898639	     -6.17758359	      0.14064667	    -58.95464912	      7.49419128	    -15.55452192	      1.75756504	     -1.17220976	     11.37189748	      5.86596370	     -4.04059560	     -0.18564100	    -19.38936462	      7.46573491	     -1.49349901	     -8.19664961	      2.41749931
      1.79583333	      0.33424083	      6.55610531	     -0.17721131	      1.52587712	      1.02490507	      0.21776949	     20.04329519	     -6.12158819	      0.02850212	    -58.30584853	      7.57236551	    -15.55960889	      1.65589736	     -1.66486995	     11.29121548	      6.12635864	     -3.70545353	     -0.15914543	    -19.38575346	      7.39597106	     -1.55107910	     -8.12405594	      2.26516896
      1.80000000	      0.29184350	      6.49433309	      0.03015499	      1.53060749	      1.02493875	      0.21751024	     20.48643733	     -6.06530987	     -0.08342422	    -57.62839795	      7.65969847	    -15.54379241	      1.61266881	     -2.08372323	     11.20128058	      6.33564838	     -3.41458640	     -0.11653039	    -19.30869692	      7.36775200	     -1.53657358	     -8.05826422	      2.16679887
      1.80416667	      0.30845758	      6.43820252	      0.22395507	      1.53529638	      1.02501676	      0.21726356	     20.86311358	     -6.01647575	     -0.18734624	    -56.93282089	      7.69248171	    -15.54963612	      1.51760303	     -2.58897747	     11.11800017	      6.62400585	     -3.07073350	     -0.07871561	    -19.38066293	      7.30067567	     -1.61003595	     -7.98300227	      1.90185309
      1.80833333	      0.27538609	      6.39031849	      0.44347600	      1.53998748	      1.02498167	      0.21699753	     21.28298853	     -5.98856542	     -0.31049404	    -56.22584837	      7.76090046	    -15.51148800	      1.42582740	     -3.02034441	     11.03825901	      6.90448150	     -2.76717645	     -0.04142444	    -19.40158684	      7.23440570	     -1.61616228	     -7.92316713	      1.71738652
      1.81250000	      0.28462074	      6.34750790	      0.63729423	      1.54468273	      1.02497813	      0.21677741	     21.64932243	     -5.95984317	     -0.40983257	    -55.49471242	      7.81372813	    -15.48319537	      1.33952312	     -3.49762118	     10.95950165	      7.14667043	     -2.46239848	     -0.00069583	    -19.39388857	      7.17096448	     -1.67914371	     -7.87241921	      1.55081865
      1.81666667	      0.25524094	      6.29899320	      0.83587841	      1.54938466	      1.02489969	      0.21656248	     22.04350690	     -5.92763873	     -0.50950746	    -54.73599725	      7.85879491	    -15.43411169	      1.30471032	     -3.91192589	     10.87085772	      7.34633409	     -2.19425718	      0.05933136	    -19.31565984	      7.14696668	     -1.68175544	     -7.81504997	      1.47132615
      1.82083333	      0.25427728	      6.25786287	      1.02393775	      1.55409120	      1.02480865	      0.21635300	     22.39877821	     -5.90567523	     -0.60255663	    -53.96345591	      7.87999311	    -15.39579414	      1.23124763	     -4.38074783	     10.78928513	      7.60548949	     -1.88424669	      0.12587855	    -19.35545020	      7.08889255	     -1.72877509	     -7.76174508	      1.23388738
      1.82500000	      0.25639991	      6.22605692	      1.22146329	      1.55874620	      1.02469790	      0.21614584	     22.74459160	     -5.89971724	     -0.70182909	    -53.17477542	      7.91442940	    -15.32991131	      1.16436998	     -4.83357927	     10.71317920	      7.85323633	     -1.60215548	      0.17846751	    -19.36130429	      7.03352457	     -1.78266649	     -7.71966474	      1.06297508
      1.82916667	      0.20619988	      6.19441241	      1.41846289	      1.56344522	      1.02448866	      0.21595849	     23.13228125	     -5.89404727	     -0.79309387	    -52.36149463	      7.93917279	    -15.25386211	      1.13629891	     -5.21615968	     10.63440733	      8.04967201	     -1.35612437	      0.25257363	    -19.28460829	      7.01064704	     -1.76784599	     -7.68140421	      0.98370707
      1.83333333	      0.19622316	      6.16622478	      1.61503702	      1.56810842	      1.02430038	      0.21576943	     23.46727438	     -5.89766951	     -0.89163254	    -51.52735510	      7.95574563	    -15.17411256	      1.10715465	     -5.64413834	     10.55571776	      8.26209838	     -1.09664077	      0.33791269	    -19.23491999	      6.98475336	     -1.80341590	     -7.64252854	      0.85109232
      1.83750000	      0.17942461	      6.13220239	      1.80106747	      1.57280327	      1.02407767	      0.21559578	     23.79476377	     -5.89393524	     -0.98165175	    -50.66703003	      7.95555635	    -15.08495556	      1.08016301	     -6.06524071	     10.46977374	      8.47370469	     -0.84024103	      0.42543107	    -19.20398474	      6.95862319	     -1.83201580	     -7.59643410	      0.69458383
      1.84166667	      0.18020606	      6.10983429	      1.99623780	      1.57747296	      1.02384550	      0.21542016	     24.09482583	     -5.91106974	     -1.08354640	    -49.80179560	      7.96110067	    -14.99378233	      1.05914396	     -6.50287419	     10.39138100	      8.69219658	     -0.58839496	      0.52265531	    -19.15923453	      6.93610074	     -1.89392601	     -7.56444254	      0.55736874
      1.84583333	      0.17620456	      6.09239174	      2.17723377	      1.58216468	      1.02357097	      0.21526084	     24.38896048	     -5.93044684	     -1.16858629	    -48.90793558	      7.95610825	    -14.88359073	      1.04195328	     -6.93104107	     10.31829427	      8.89189412	     -0.34323946	      0.61482167	    -19.12322962	      6.91317463	     -1.92983743	     -7.53474627	      0.41975258
      1.85000000	      0.16598129	      6.07486503	      2.36731069	      1.58682129	      1.02326091	      0.21510569	     24.67800833	     -5.95496674	     -1.26271529	    -47.99774790	      7.95101762	    -14.76731728	      1.02662811	     -7.33666583	     10.24274620	      9.10145413	     -0.12743413	      0.72792384	    -19.09067951	      6.88912171	     -1.97557541	     -7.51007528	      0.27127581
      1.85416667	      0.15706192	      6.06803426	      2.55338086	      1.59153754	      1.02291642	      0.21496117	     24.95325768	     -5.99392611	     -1.35570815	    -47.07332265	      7.94825071	    -14.63441226	      1.01492392	     -7.75681265	     10.17469210	      9.29995653	      0.10868960	      0.83322187	    -19.04900059	      6.86509887	     -2.01302933	     -7.49345282	      0.12553917
      1.85833333	      0.12601566	      6.05793458	      2.74558765	      1.59622451	      1.02251821	      0.21481874	     25.24332855	     -6.03511830	     -1.45765888	    -46.13435318	      7.93584241	    -14.49636694	      1.00845760	     -8.13731207	     10.10224146	      9.49835937	      0.31718322	      0.95575894	    -19.00314129	      6.84568395	     -2.04157832	     -7.48442318	      0.00030148
